<svg width="72" height="109" viewBox="0 0 72 109" fill="none" xmlns="http://www.w3.org/2000/svg">
<path d="M38.0202 48.8407V3.15872C38.0202 1.96874 37.0514 1 35.8614 1H2.1581C0.968114 1 0 1.96811 0 3.15872V48.8413C0 50.0313 0.968114 51 2.1581 51H35.8614C37.0514 50.9994 38.0202 50.0313 38.0202 48.8407ZM11.9874 9.33302H26.0334C27.5884 9.33302 28.854 8.06804 28.854 6.51243V5.69557H33.0727V45.8869H4.94806V5.69619H9.16676V6.51306C9.16614 8.06804 10.4311 9.33302 11.9874 9.33302ZM27.6034 6.51243C27.6034 7.37867 26.899 8.08304 26.0328 8.08304H11.9874C11.1211 8.08304 10.4161 7.37867 10.4161 6.51243V5.69557H27.6034V6.51243ZM10.4161 4.44621V2.24998H27.6034V4.44621H10.4161ZM36.7702 48.8407C36.7702 49.3419 36.3627 49.7494 35.8614 49.7494H2.1581C1.65748 49.7494 1.24998 49.3419 1.24998 48.8407V3.15872C1.24998 2.65748 1.65748 2.24998 2.1581 2.24998H9.16614V4.44621H4.32245C3.97683 4.44621 3.69745 4.7262 3.69745 5.0712V46.5119C3.69745 46.8569 3.97683 47.1369 4.32245 47.1369H33.6971C34.0427 47.1369 34.3221 46.8569 34.3221 46.5119V5.0712C34.3221 4.7262 34.0427 4.44621 33.6971 4.44621H28.8534V2.24998H35.8614C36.3627 2.24998 36.7702 2.65748 36.7702 3.15872V48.8407Z" fill="black"/>
<path d="M10.5855 15.5698H25.9253L24.7747 16.7204C24.5303 16.9648 24.5303 17.3604 24.7747 17.6042C24.8966 17.726 25.0566 17.7873 25.2166 17.7873C25.3766 17.7873 25.5366 17.726 25.6584 17.6042L27.8759 15.3867C28.1203 15.1423 28.1203 14.7473 27.8759 14.503L25.6584 12.2855C25.4141 12.0411 25.0191 12.0411 24.7747 12.2855C24.5303 12.5292 24.5303 12.9249 24.7747 13.1692L25.9253 14.3198H10.5855C10.2399 14.3198 9.9605 14.5998 9.9605 14.9448C9.9605 15.2898 10.2405 15.5698 10.5855 15.5698Z" fill="#FFD550"/>
<path d="M12.3617 41.7982C12.4836 41.9201 12.6436 41.9814 12.8036 41.9814C12.9636 41.9814 13.1236 41.9201 13.2455 41.7982C13.4898 41.5539 13.4898 41.1582 13.2455 40.9145L12.0942 39.7639H27.4334C27.779 39.7639 28.0584 39.4839 28.0584 39.1389C28.0584 38.7939 27.779 38.5139 27.4334 38.5139H12.0948L13.2461 37.3633C13.4905 37.1195 13.4905 36.7239 13.2461 36.4796C13.0017 36.2352 12.6067 36.2352 12.3623 36.4796L10.1442 38.697C10.0267 38.8145 9.96113 38.9733 9.96113 39.1389C9.96113 39.3045 10.0267 39.4639 10.1442 39.5808L12.3617 41.7982Z" fill="#FFD550"/>
<path d="M19.0204 18.0429C16.7054 18.0579 14.5348 18.9766 12.9092 20.6285C11.2836 22.2804 10.3967 24.4678 10.4124 26.7878C10.428 29.1078 11.343 31.2834 12.9905 32.9134C14.6236 34.5296 16.7829 35.4177 19.076 35.4177C19.0954 35.4177 19.1154 35.4177 19.1354 35.4177C21.4504 35.4027 23.621 34.484 25.2466 32.8321C26.8722 31.1802 27.759 28.9928 27.7434 26.6728C27.7278 24.3528 26.8122 22.1772 25.1647 20.5473C23.5172 18.9167 21.331 18.0017 19.0204 18.0429ZM25.1472 22.2554L22.816 22.271C22.2497 21.0216 21.5429 20.0585 20.9797 19.4185C22.2478 19.7485 23.4153 20.3998 24.3728 21.3472C24.6597 21.6297 24.9128 21.9366 25.1472 22.2554ZM26.5865 26.1178L23.7666 26.1366C23.7078 25.1303 23.5222 24.2122 23.2541 23.3928L25.8303 23.376C26.2515 24.2266 26.5097 25.1528 26.5865 26.1178ZM25.9672 29.7946L23.2866 29.8121C23.5466 29.0371 23.7222 28.1859 23.7703 27.2609L26.594 27.2422C26.5353 28.134 26.3215 28.9934 25.9672 29.7946ZM12.2811 23.4653L14.8592 23.4485C14.6023 24.2716 14.4292 25.1916 14.3842 26.1991L11.5611 26.2178C11.6249 25.2516 11.8711 24.3222 12.2811 23.4653ZM19.5504 22.2922L19.5323 19.5385C19.9291 19.911 20.8285 20.8473 21.566 22.2785L19.5504 22.2922ZM22.0578 23.4003C22.3572 24.2066 22.5741 25.1241 22.6403 26.1441L19.5754 26.1647L19.5573 23.4172L22.0578 23.4003ZM18.4248 22.2997L16.5373 22.3122C17.1873 21.0097 17.9773 20.101 18.4073 19.6641L18.4248 22.2997ZM18.4323 23.4247L18.4504 26.1722L15.5054 26.1916C15.5579 25.1716 15.7673 24.2522 16.0567 23.4403L18.4323 23.4247ZM11.568 27.3422L14.3948 27.3234C14.4561 28.2472 14.6429 29.0965 14.9136 29.8678L12.228 29.8859C11.8636 29.0896 11.6392 28.2328 11.568 27.3422ZM15.5129 27.3165L18.4579 27.2972L18.4748 29.8446L16.1135 29.8603C15.8067 29.099 15.5823 28.249 15.5129 27.3165ZM18.4823 30.969L18.4985 33.379C17.951 32.8384 17.246 32.0259 16.6554 30.9809L18.4823 30.969ZM19.6241 33.4952L19.6073 30.9615L21.5554 30.9484C20.9329 32.0846 20.1797 32.9477 19.6241 33.4952ZM19.6004 29.8371L19.5835 27.2897L22.6441 27.269C22.586 28.1997 22.3828 29.0565 22.0866 29.8203L19.6004 29.8371ZM17.0773 19.4435C16.5248 20.0891 15.8311 21.0622 15.2811 22.3204L12.9486 22.336C13.1786 22.0147 13.428 21.7047 13.7105 21.4172C14.6554 20.4579 15.8142 19.7904 17.0773 19.4435ZM12.858 31.0065L15.3761 30.9896C16.0661 32.3959 16.9754 33.4646 17.6773 34.1571C16.2104 33.8815 14.8654 33.1871 13.7805 32.1134C13.4348 31.7709 13.128 31.3996 12.858 31.0065ZM24.4441 32.0427C23.3766 33.1271 22.0391 33.8471 20.5822 34.1415C21.276 33.4377 22.1703 32.3559 22.8403 30.9403L25.3528 30.9234C25.0878 31.3202 24.7859 31.6959 24.4441 32.0427Z" fill="#FFD550"/>
</svg>
