<svg width="80" height="109" viewBox="0 0 80 109" fill="none" xmlns="http://www.w3.org/2000/svg">
<path d="M58.99 26C58.99 20.1888 56.9996 14.8328 53.6589 10.5869C53.6539 10.5819 53.6539 10.5769 53.6489 10.5669C53.6089 10.5019 53.5589 10.4419 53.5039 10.3919C48.923 4.67073 41.8816 1 33.995 1C26.1084 1 19.067 4.67073 14.4811 10.3919C14.4261 10.4419 14.3761 10.4969 14.3361 10.5669C14.3311 10.5719 14.3311 10.5769 14.3261 10.5869C10.9904 14.8378 9 20.1888 9 26C9 31.8112 10.9904 37.1622 14.3311 41.4131C14.3361 41.4181 14.3361 41.4281 14.3411 41.4331C14.3811 41.5031 14.4361 41.5581 14.4911 41.6081C19.027 47.2693 25.9684 50.915 33.7499 50.995H33.755C33.835 51 33.92 51 34 51C34.08 51 34.16 51 34.235 50.995C34.24 50.995 34.245 50.995 34.25 50.995C42.0266 50.915 48.958 47.2743 53.4939 41.6231C53.5539 41.5681 53.6089 41.5081 53.6539 41.4331C53.6589 41.4281 53.6589 41.4181 53.6639 41.4131C56.9996 37.1622 58.99 31.8112 58.99 26ZM52.7037 39.8878C50.5983 38.7125 48.0378 37.7423 45.2022 37.0422C45.9674 33.8866 46.3975 30.3959 46.4575 26.8402H57.2897C57.1146 31.7211 55.4393 36.217 52.7037 39.8878ZM34.185 49.3097C34.12 49.3097 34.055 49.3097 33.995 49.3097C33.93 49.3097 33.87 49.3097 33.805 49.3097C30.2042 49.1696 26.8086 44.9788 24.8582 38.3075C27.7437 37.7223 30.8094 37.4273 33.995 37.4273C37.1756 37.4273 40.2462 37.7273 43.1318 38.3075C41.1764 44.9738 37.7958 49.1646 34.185 49.3097ZM10.7003 26.8452H14.3311C16.3815 30.856 20.1772 35.1568 22.1126 37.2172C19.5471 37.9024 17.2216 38.8126 15.2863 39.8928C12.5507 36.217 10.8754 31.7211 10.7003 26.8452ZM15.2813 12.1122C16.0064 12.5173 16.7916 12.9024 17.6167 13.2525C14.7962 15.2328 12.9408 18.5135 12.9408 22.2192C12.9408 23.1194 13.1758 24.1146 13.5709 25.1598H10.7003C10.8704 20.2839 12.5507 15.783 15.2813 12.1122ZM33.995 2.68534C34.05 2.68534 34.105 2.68534 34.17 2.69034C37.7808 2.82036 41.1714 7.0112 43.1268 13.6925C40.2362 14.2777 37.1706 14.5727 33.99 14.5727C33.2298 14.5727 32.4597 14.5527 31.6595 14.5177C30.0592 12.9024 27.9638 11.7822 25.6183 11.4071C27.6887 5.92598 30.7794 2.68534 33.995 2.68534ZM57.2897 25.1598H46.4575C46.3975 21.6091 45.9674 18.1184 45.2022 14.9578C48.0428 14.2577 50.6033 13.2825 52.7037 12.1122C55.4393 15.783 57.1196 20.2839 57.2897 25.1598ZM33.995 35.7419C31.4195 35.7419 28.914 35.932 26.5135 36.3071C28.5639 34.0416 31.6695 30.3359 33.4499 26.8452H44.7772C44.7171 30.2759 44.3021 33.6415 43.5619 36.6771C40.5363 36.057 37.3257 35.7419 33.995 35.7419ZM34.205 25.1598C34.6051 24.1146 34.8352 23.1194 34.8352 22.2192C34.8352 20.0188 34.18 17.9684 33.0548 16.248C33.3699 16.2531 33.6799 16.2581 33.99 16.2581C37.3207 16.2581 40.5313 15.943 43.5569 15.3229C44.2971 18.3635 44.7121 21.7291 44.7722 25.1598H34.205ZM23.888 12.9574C28.994 12.9574 33.1498 17.1132 33.1498 22.2192C33.1498 26.225 26.9386 33.4865 23.888 36.6471C20.8374 33.4865 14.6261 26.225 14.6261 22.2192C14.6261 17.1132 18.782 12.9574 23.888 12.9574ZM51.6385 10.777C49.7131 11.8172 47.3727 12.6873 44.7772 13.3275C43.4769 8.83157 41.5715 5.38588 39.3061 3.30046C44.177 4.43569 48.4679 7.11122 51.6385 10.777ZM28.7489 3.28046C26.8236 5.04081 25.1382 7.76635 23.878 11.2721C22.3227 11.2721 20.8424 11.6021 19.5021 12.1922C18.3619 11.7672 17.3067 11.2971 16.3515 10.777C19.5371 7.09122 23.848 4.41568 28.7489 3.28046ZM16.3515 41.223C18.2819 40.1778 20.6223 39.3077 23.2128 38.6725C24.5131 43.1684 26.4235 46.6141 28.6889 48.6995C23.813 47.5643 19.5221 44.8888 16.3515 41.223ZM39.3061 48.6995C41.5715 46.6091 43.4769 43.1684 44.7772 38.6725C47.3627 39.3077 49.7031 40.1778 51.6335 41.223C48.4679 44.8888 44.177 47.5593 39.3061 48.6995Z" fill="black"/>
<path d="M23.888 27.6802C26.8986 27.6802 29.3491 25.2297 29.3491 22.2191C29.3491 19.2085 26.8986 16.7581 23.888 16.7581C20.8774 16.7581 18.4269 19.2085 18.4269 22.2191C18.4269 25.2297 20.8774 27.6802 23.888 27.6802ZM23.888 18.4384C25.9734 18.4384 27.6687 20.1337 27.6687 22.2191C27.6687 24.3046 25.9734 25.9999 23.888 25.9999C21.8026 25.9999 20.1072 24.3046 20.1072 22.2191C20.1072 20.1337 21.8076 18.4384 23.888 18.4384Z" fill="#FFD550"/>
</svg>
