<svg width="71" height="109" viewBox="0 0 71 109" fill="none" xmlns="http://www.w3.org/2000/svg">
<path fill-rule="evenodd" clip-rule="evenodd" d="M4.58332 1.00024C2.06188 1.00024 0 3.06217 0 5.58366V7.66699C4.99998e-05 8.12716 0.373116 8.50032 0.833331 8.50032H16.6666H30.8332C31.2935 8.50032 31.6665 8.12716 31.6666 7.66699V5.58366C31.6666 3.963 32.9625 2.66691 34.5832 2.66691C36.2039 2.66691 37.4999 3.963 37.4999 5.58366V40.5827C37.4999 43.1041 39.5618 45.1661 42.0832 45.1661C44.6062 45.1477 46.6803 43.0807 46.6665 40.5827C46.6665 40.1226 46.2934 39.7494 45.8332 39.7494H40.8332C39.7063 39.7327 39.7063 41.4319 40.8332 41.4161H44.8729C44.5134 42.6457 43.3773 43.4994 42.0832 43.4994C40.4625 43.4994 39.1665 42.2032 39.1665 40.5827V5.58366C39.1665 3.06217 37.1047 1.00024 34.5832 1.00024C24.6336 1.00108 14.5714 1.00024 4.58332 1.00024ZM4.58332 2.66691H31.0579C30.367 3.4699 29.9999 4.44082 29.9999 5.57715V6.82715H16.6666H1.66666V5.57715C1.66666 3.95649 2.96264 2.6599 4.58332 2.6604V2.66691Z" fill="black"/>
<path fill-rule="evenodd" clip-rule="evenodd" d="M5.92773 7.66699V40.5827C5.92773 43.1041 7.98961 45.1661 10.5111 45.1661H15.8333V43.4994H10.5111C8.89037 43.4994 7.5944 42.2032 7.5944 40.5827V7.66699H5.92773Z" fill="black"/>
<path fill-rule="evenodd" clip-rule="evenodd" d="M26.2629 11.0096C26.1526 11.0082 26.0431 11.0288 25.9408 11.07C25.8385 11.1113 25.7454 11.1725 25.6669 11.2501C25.5884 11.3276 25.526 11.4199 25.4835 11.5217C25.441 11.6235 25.4191 11.7326 25.4191 11.8429C25.4191 11.9532 25.441 12.0626 25.4835 12.1644C25.526 12.2662 25.5884 12.3585 25.6669 12.436C25.7454 12.5135 25.8385 12.5746 25.9408 12.6158C26.0431 12.6571 26.1526 12.6776 26.2629 12.6762H32.4869C32.5972 12.6776 32.7067 12.6571 32.809 12.6158C32.9113 12.5746 33.0044 12.5135 33.0829 12.436C33.1614 12.3585 33.2237 12.2662 33.2663 12.1644C33.3088 12.0626 33.3307 11.9532 33.3307 11.8429C33.3307 11.7326 33.3088 11.6235 33.2663 11.5217C33.2237 11.4199 33.1614 11.3276 33.0829 11.2501C33.0044 11.1725 32.9113 11.1113 32.809 11.07C32.7067 11.0288 32.5972 11.0082 32.4869 11.0096H26.2629Z" fill="black"/>
<path fill-rule="evenodd" clip-rule="evenodd" d="M12.5227 11.0096C12.4124 11.0082 12.3029 11.0288 12.2006 11.07C12.0982 11.1113 12.0051 11.1725 11.9266 11.2501C11.8481 11.3276 11.7858 11.4199 11.7433 11.5217C11.7007 11.6235 11.6788 11.7326 11.6788 11.8429C11.6788 11.9532 11.7007 12.0626 11.7433 12.1644C11.7858 12.2662 11.8481 12.3585 11.9266 12.436C12.0051 12.5135 12.0982 12.5746 12.2006 12.6158C12.3029 12.6571 12.4124 12.6776 12.5227 12.6762H14.9999C15.1102 12.6776 15.2197 12.6571 15.322 12.6158C15.4243 12.5746 15.5174 12.5135 15.5959 12.436C15.6744 12.3585 15.7368 12.2662 15.7793 12.1644C15.8218 12.0626 15.8437 11.9532 15.8437 11.8429C15.8437 11.7326 15.8218 11.6235 15.7793 11.5217C15.7368 11.4199 15.6744 11.3276 15.5959 11.2501C15.5174 11.1725 15.4243 11.1113 15.322 11.07C15.2197 11.0288 15.1102 11.0082 14.9999 11.0096H12.5227Z" fill="black"/>
<path fill-rule="evenodd" clip-rule="evenodd" d="M17.9295 11.0096C17.8192 11.0082 17.7097 11.0288 17.6074 11.07C17.5051 11.1113 17.412 11.1725 17.3335 11.2501C17.255 11.3276 17.1927 11.4199 17.1501 11.5217C17.1076 11.6235 17.0857 11.7326 17.0857 11.8429C17.0857 11.9532 17.1076 12.0626 17.1501 12.1644C17.1927 12.2662 17.255 12.3585 17.3335 12.436C17.412 12.5135 17.5051 12.5746 17.6074 12.6158C17.7097 12.6571 17.8192 12.6776 17.9295 12.6762H23.3201C23.4305 12.6776 23.54 12.6571 23.6423 12.6158C23.7446 12.5746 23.8377 12.5135 23.9162 12.436C23.9947 12.3585 24.057 12.2662 24.0995 12.1644C24.1421 12.0626 24.164 11.9532 24.164 11.8429C24.164 11.7326 24.1421 11.6235 24.0995 11.5217C24.057 11.4199 23.9947 11.3276 23.9162 11.2501C23.8377 11.1725 23.7446 11.1113 23.6423 11.07C23.54 11.0288 23.4305 11.0082 23.3201 11.0096H17.9295Z" fill="black"/>
<path fill-rule="evenodd" clip-rule="evenodd" d="M15.8463 21.0096C15.736 21.0082 15.6265 21.0288 15.5242 21.07C15.4218 21.1113 15.3287 21.1725 15.2502 21.2501C15.1717 21.3276 15.1094 21.4199 15.0669 21.5217C15.0243 21.6235 15.0024 21.7326 15.0024 21.8429C15.0024 21.9532 15.0243 22.0626 15.0669 22.1644C15.1094 22.2662 15.1717 22.3585 15.2502 22.436C15.3287 22.5135 15.4218 22.5748 15.5242 22.616C15.6265 22.6573 15.736 22.6776 15.8463 22.6762H29.1535C29.2639 22.6776 29.3734 22.6573 29.4757 22.616C29.578 22.5748 29.6711 22.5135 29.7496 22.436C29.8281 22.3585 29.8904 22.2662 29.933 22.1644C29.9755 22.0626 29.9974 21.9532 29.9974 21.8429C29.9974 21.7326 29.9755 21.6235 29.933 21.5217C29.8904 21.4199 29.8281 21.3276 29.7496 21.2501C29.6711 21.1725 29.578 21.1113 29.4757 21.07C29.3734 21.0288 29.2639 21.0082 29.1535 21.0096H15.8463Z" fill="black"/>
<path fill-rule="evenodd" clip-rule="evenodd" d="M21.2629 17.6763C21.1526 17.675 21.0431 17.6955 20.9408 17.7368C20.8385 17.778 20.7454 17.8393 20.6669 17.9168C20.5884 17.9943 20.526 18.0866 20.4835 18.1884C20.441 18.2902 20.4191 18.3993 20.4191 18.5097C20.4191 18.62 20.441 18.7293 20.4835 18.8311C20.526 18.9329 20.5884 19.0252 20.6669 19.1027C20.7454 19.1802 20.8385 19.2415 20.9408 19.2828C21.0431 19.324 21.1526 19.3444 21.2629 19.343H32.4868C32.5972 19.3444 32.7066 19.324 32.809 19.2828C32.9113 19.2415 33.0044 19.1802 33.0829 19.1027C33.1614 19.0252 33.2237 18.9329 33.2662 18.8311C33.3088 18.7293 33.3307 18.62 33.3307 18.5097C33.3307 18.3993 33.3088 18.2902 33.2662 18.1884C33.2237 18.0866 33.1614 17.9943 33.0829 17.9168C33.0044 17.8393 32.9113 17.778 32.809 17.7368C32.7066 17.6955 32.5972 17.675 32.4868 17.6763H21.2629Z" fill="black"/>
<path fill-rule="evenodd" clip-rule="evenodd" d="M12.5129 17.6763C12.4026 17.675 12.2931 17.6955 12.1908 17.7368C12.0885 17.778 11.9954 17.8393 11.9169 17.9168C11.8384 17.9943 11.776 18.0866 11.7335 18.1884C11.691 18.2902 11.6691 18.3993 11.6691 18.5097C11.6691 18.62 11.691 18.7293 11.7335 18.8311C11.776 18.9329 11.8384 19.0252 11.9169 19.1027C11.9954 19.1802 12.0885 19.2415 12.1908 19.2828C12.2931 19.324 12.4026 19.3444 12.5129 19.343H18.3202C18.4305 19.3444 18.54 19.324 18.6423 19.2828C18.7446 19.2415 18.8377 19.1802 18.9162 19.1027C18.9947 19.0252 19.0571 18.9329 19.0996 18.8311C19.1421 18.7293 19.164 18.62 19.164 18.5097C19.164 18.3993 19.1421 18.2902 19.0996 18.1884C19.0571 18.0866 18.9947 17.9943 18.9162 17.9168C18.8377 17.8393 18.7446 17.778 18.6423 17.7368C18.54 17.6955 18.4305 17.675 18.3202 17.6763H12.5129Z" fill="black"/>
<path fill-rule="evenodd" clip-rule="evenodd" d="M30.0129 14.3428C29.9026 14.3415 29.7931 14.362 29.6908 14.4033C29.5885 14.4445 29.4954 14.5058 29.4169 14.5833C29.3384 14.6608 29.276 14.7531 29.2335 14.8549C29.191 14.9567 29.1691 15.0658 29.1691 15.1762C29.1691 15.2865 29.191 15.3958 29.2335 15.4976C29.276 15.5994 29.3384 15.6917 29.4169 15.7692C29.4954 15.8467 29.5885 15.9078 29.6908 15.9491C29.7931 15.9903 29.9026 16.0109 30.0129 16.0095H32.4869C32.5972 16.0109 32.7067 15.9903 32.809 15.9491C32.9113 15.9078 33.0044 15.8467 33.0829 15.7692C33.1614 15.6917 33.2237 15.5994 33.2663 15.4976C33.3088 15.3958 33.3307 15.2865 33.3307 15.1762C33.3307 15.0658 33.3088 14.9567 33.2663 14.8549C33.2237 14.7531 33.1614 14.6608 33.0829 14.5833C33.0044 14.5058 32.9113 14.4445 32.809 14.4033C32.7067 14.362 32.5972 14.3415 32.4869 14.3428H30.0129Z" fill="black"/>
<path fill-rule="evenodd" clip-rule="evenodd" d="M12.5129 14.3428C12.4026 14.3415 12.2931 14.362 12.1908 14.4033C12.0885 14.4445 11.9954 14.5058 11.9169 14.5833C11.8384 14.6608 11.776 14.7531 11.7335 14.8549C11.691 14.9567 11.6691 15.0658 11.6691 15.1762C11.6691 15.2865 11.691 15.3958 11.7335 15.4976C11.776 15.5994 11.8384 15.6917 11.9169 15.7692C11.9954 15.8467 12.0885 15.9078 12.1908 15.9491C12.2931 15.9903 12.4026 16.0109 12.5129 16.0095H19.5702C19.6805 16.0109 19.79 15.9903 19.8923 15.9491C19.9946 15.9078 20.0877 15.8467 20.1662 15.7692C20.2447 15.6917 20.3071 15.5994 20.3496 15.4976C20.3921 15.3958 20.414 15.2865 20.414 15.1762C20.414 15.0658 20.3921 14.9567 20.3496 14.8549C20.3071 14.7531 20.2447 14.6608 20.1662 14.5833C20.0877 14.5058 19.9946 14.4445 19.8923 14.4033C19.79 14.362 19.6805 14.3415 19.5702 14.3428H12.5129Z" fill="black"/>
<path fill-rule="evenodd" clip-rule="evenodd" d="M22.5129 14.3428C22.4026 14.3415 22.2931 14.362 22.1908 14.4033C22.0885 14.4445 21.9954 14.5058 21.9169 14.5833C21.8384 14.6608 21.776 14.7531 21.7335 14.8549C21.691 14.9567 21.6691 15.0658 21.6691 15.1762C21.6691 15.2865 21.691 15.3958 21.7335 15.4976C21.776 15.5994 21.8384 15.6917 21.9169 15.7692C21.9954 15.8467 22.0885 15.9078 22.1908 15.9491C22.2931 15.9903 22.4026 16.0109 22.5129 16.0095H27.0702C27.1805 16.0109 27.29 15.9903 27.3923 15.9491C27.4946 15.9078 27.5877 15.8467 27.6662 15.7692C27.7447 15.6917 27.8071 15.5994 27.8496 15.4976C27.8921 15.3958 27.914 15.2865 27.914 15.1762C27.914 15.0658 27.8921 14.9567 27.8496 14.8549C27.8071 14.7531 27.7447 14.6608 27.6662 14.5833C27.5877 14.5058 27.4946 14.4445 27.3923 14.4033C27.29 14.362 27.1805 14.3415 27.0702 14.3428H22.5129Z" fill="black"/>
<path d="M22.4999 25.9443C18.1375 25.9443 14.5833 29.4986 14.5833 33.8608C14.5833 38.2231 18.1375 41.7774 22.4999 41.7774C26.8622 41.7774 30.4165 38.2231 30.4165 33.8608C30.4165 29.4986 26.8622 25.9443 22.4999 25.9443ZM22.4999 27.611C25.9615 27.611 28.7499 30.3995 28.7499 33.8608C28.7499 37.3223 25.9615 40.1108 22.4999 40.1108C19.0382 40.1108 16.2499 37.3223 16.2499 33.8608C16.2499 30.3995 19.0382 27.611 22.4999 27.611Z" fill="#FFD550"/>
<path d="M22.4999 29.6943C20.2086 29.6943 18.3333 31.5696 18.3333 33.8608C18.3332 36.1521 20.2086 38.0274 22.4999 38.0274C24.7912 38.0274 26.6666 36.1521 26.6666 33.8608C26.6665 31.5696 24.7912 29.6943 22.4999 29.6943ZM22.4999 31.361C23.8905 31.361 24.9999 32.4703 24.9999 33.8608C24.9999 35.2513 23.8905 36.3608 22.4999 36.3608C21.1093 36.3608 19.9999 35.2513 19.9999 33.8608C19.9999 32.4703 21.1093 31.361 22.4999 31.361Z" fill="#FFD550"/>
<path fill-rule="evenodd" clip-rule="evenodd" d="M17.5813 39.3328V50.1659C17.5814 50.3134 17.6205 50.4583 17.6948 50.5858C17.7691 50.7133 17.8759 50.8188 18.0043 50.8916C18.1327 50.9644 18.278 51.0019 18.4256 51.0002C18.5732 50.9985 18.7176 50.9577 18.8443 50.882L22.5845 48.6392L26.3215 50.882C26.4482 50.9577 26.5927 50.9985 26.7402 51.0002C26.8878 51.0019 27.0332 50.9644 27.1615 50.8916C27.2899 50.8188 27.3967 50.7133 27.471 50.5858C27.5453 50.4583 27.5845 50.3134 27.5845 50.1659V39.3328H25.9146V48.6911L23.011 46.9497C22.8816 46.8724 22.7336 46.8317 22.5829 46.8317C22.4322 46.8317 22.2843 46.8724 22.1549 46.9497L19.2512 48.6911V39.3328H17.5813Z" fill="#FFD550"/>
<path fill-rule="evenodd" clip-rule="evenodd" d="M21.6666 27.1099V31.1463H23.3333V27.1099H21.6666Z" fill="#FFD550"/>
<path fill-rule="evenodd" clip-rule="evenodd" d="M15.4166 33.0273V34.694H18.8736V33.0273H15.4166Z" fill="#FFD550"/>
<path fill-rule="evenodd" clip-rule="evenodd" d="M25.7909 33.0273V34.694H29.2512V33.0273H25.7909Z" fill="#FFD550"/>
<path fill-rule="evenodd" clip-rule="evenodd" d="M21.6666 37.4836V47.2814H23.3333V37.4836H21.6666Z" fill="#FFD550"/>
<path fill-rule="evenodd" clip-rule="evenodd" d="M29.1666 43.509V45.1757H42.0833V43.509H29.1666Z" fill="black"/>
</svg>
